<svg xmlns="http://www.w3.org/2000/svg" width="127" height="127" viewBox="0 0 127 127">
  <path id="ic_extension_24px" d="M113.881,61.476H104.81V37.286a12.131,12.131,0,0,0-12.1-12.1H68.524V16.119a15.119,15.119,0,0,0-30.238,0V25.19H14.1A12.079,12.079,0,0,0,2.06,37.286V60.267h9.011a16.329,16.329,0,0,1,0,32.657H2V115.9A12.131,12.131,0,0,0,14.1,128H37.076v-9.071a16.329,16.329,0,1,1,32.657,0V128H92.714a12.131,12.131,0,0,0,12.1-12.1V91.714h9.071a15.119,15.119,0,1,0,0-30.238Z" transform="translate(-2 -1)" fill="#faffff"/>
</svg>
