<svg xmlns="http://www.w3.org/2000/svg" width="127" height="127" viewBox="0 0 127 127">
  <path id="ic_autorenew_24px" d="M67.5,29.864V47.182L99.25,24.091,67.5,1V18.318C32.416,18.318,4,38.985,4,64.5c0,9.063,3.651,17.491,9.842,24.592l11.589-8.428A26.9,26.9,0,0,1,19.875,64.5C19.875,45.392,41.227,29.864,67.5,29.864Zm53.658,10.045-11.589,8.428A27.563,27.563,0,0,1,115.125,64.5c0,19.108-21.352,34.636-47.625,34.636V81.818L35.75,104.909,67.5,128V110.682c35.084,0,63.5-20.666,63.5-46.182C131,55.437,127.349,47.009,121.158,39.908Z" transform="translate(-4 -1)" fill="#faffff"/>
</svg>
