<svg xmlns="http://www.w3.org/2000/svg" width="127" height="127" viewBox="0 0 127 127">
  <path id="ic_domain_24px" d="M65.5,31.222V3H2V130H129V31.222ZM27.4,115.889H14.7V101.778H27.4Zm0-28.222H14.7V73.556H27.4Zm0-28.222H14.7V45.333H27.4Zm0-28.222H14.7V17.111H27.4Zm25.4,84.667H40.1V101.778H52.8Zm0-28.222H40.1V73.556H52.8Zm0-28.222H40.1V45.333H52.8Zm0-28.222H40.1V17.111H52.8Zm63.5,84.667H65.5V101.778H78.2V87.667H65.5V73.556H78.2V59.444H65.5V45.333h50.8ZM103.6,59.444H90.9V73.556h12.7Zm0,28.222H90.9v14.111h12.7Z" transform="translate(-2 -3)" fill="#faffff"/>
</svg>
